<svg width="166" height="50" viewBox="0 0 166 50" fill="none" xmlns="http://www.w3.org/2000/svg">
<g clip-path="url(#clip0_1_5)">
<path d="M24.9434 0.0824585C11.2093 0.0824585 0.0751343 11.2411 0.0751343 25.0057C0.0751343 38.7709 11.2093 49.9286 24.9434 49.9286C38.6789 49.9286 49.8119 38.7709 49.8119 25.0057C49.8119 11.242 38.6789 0.083649 24.9431 0.083649L24.9434 0.0824585ZM36.3478 36.0289C35.9023 36.761 34.9461 36.9932 34.2156 36.5438C28.3768 32.9694 21.0265 32.1598 12.3701 34.142C11.536 34.3325 10.7045 33.8087 10.5144 32.9723C10.3235 32.136 10.8441 31.3027 11.6803 31.1122C21.1533 28.9432 29.279 29.8771 35.834 33.892C36.5645 34.3414 36.7962 35.2967 36.3478 36.0289ZM39.3916 29.2426C38.8303 30.1569 37.6366 30.4456 36.7249 29.8831C30.0404 25.7652 19.8508 24.5726 11.9443 26.978C10.9189 27.2884 9.83588 26.7092 9.52466 25.6834C9.21583 24.6557 9.794 23.5723 10.8176 23.2598C19.849 20.5134 31.0767 21.8438 38.7531 26.5714C39.6648 27.1339 39.9528 28.3304 39.3916 29.2429V29.2426ZM39.6529 22.1759C31.638 17.4048 18.4144 16.9661 10.7621 19.2938C9.53327 19.6673 8.23378 18.972 7.8614 17.7405C7.48901 16.5084 8.18211 15.2069 9.41182 14.8325C18.1962 12.1598 32.7991 12.6762 42.0268 18.1664C43.1345 18.8238 43.4968 20.2545 42.8405 21.3607C42.1872 22.4685 40.7558 22.8337 39.6541 22.1759H39.6529ZM67.7333 23.0902C63.4393 22.064 62.6761 21.3438 62.6761 19.8304C62.6761 18.4006 64.0184 17.4384 66.0169 17.4384C67.9531 17.4384 69.8715 18.1691 71.8848 19.6732C71.9442 19.7188 72.0214 19.7369 72.0957 19.725C72.1729 19.7137 72.2382 19.6723 72.2828 19.6101L74.3793 16.6482C74.4654 16.5262 74.4417 16.3581 74.3258 16.2649C71.9294 14.3384 69.233 13.4018 66.0793 13.4018C61.4438 13.4018 58.2039 16.1902 58.2039 20.1798C58.2039 24.4581 60.9983 25.9729 65.8269 27.1423C69.9338 28.0908 70.6287 28.8854 70.6287 30.3057C70.6287 31.8801 69.2271 32.8592 66.9702 32.8592C64.4638 32.8592 62.4178 32.011 60.1312 30.0289C60.0748 29.9783 59.9976 29.9575 59.9263 29.9604C59.8491 29.9664 59.7808 30.0021 59.7333 30.0587L57.3814 32.8622C57.2834 32.9813 57.2952 33.1539 57.4081 33.2551C60.0688 35.636 63.3413 36.892 66.8751 36.892C71.87 36.892 75.0979 34.1569 75.0979 29.9217C75.1068 26.3482 72.9717 24.3691 67.7423 23.0941L67.7333 23.0902ZM86.4002 18.8462C84.2354 18.8462 82.4595 19.7009 80.9926 21.4524V19.481C80.9926 19.3253 80.8678 19.1985 80.7134 19.1985H76.8678C76.7134 19.1985 76.5887 19.3253 76.5887 19.481V41.386C76.5887 41.5408 76.7134 41.6688 76.8678 41.6688H80.7134C80.8678 41.6688 80.9926 41.5408 80.9926 41.386V34.4723C82.4595 36.1182 84.2354 36.9247 86.4002 36.9247C90.424 36.9247 94.4983 33.8206 94.4983 27.8863C94.5042 21.9509 90.4299 18.8459 86.4032 18.8459L86.4002 18.8462ZM90.0261 27.8863C90.0261 30.9069 88.1701 33.017 85.5093 33.017C82.8812 33.017 80.8975 30.8116 80.8975 27.8863C80.8975 24.9607 82.8812 22.756 85.5093 22.756C88.1255 22.7557 90.0261 24.9128 90.0261 27.886V27.8863ZM104.936 18.8462C99.7544 18.8462 95.695 22.845 95.695 27.9509C95.695 33.0021 99.7277 36.9575 104.874 36.9575C110.074 36.9575 114.145 32.9723 114.145 27.8863C114.145 22.8176 110.1 18.8467 104.936 18.8467V18.8462ZM104.936 33.0467C102.181 33.0467 100.102 30.8265 100.102 27.8848C100.102 24.9298 102.109 22.7854 104.874 22.7854C107.648 22.7854 109.738 25.0048 109.738 27.9494C109.738 30.9039 107.719 33.0467 104.936 33.0467ZM125.21 19.1985H120.978V14.8634C120.978 14.7081 120.853 14.5813 120.699 14.5813H116.853C116.699 14.5813 116.571 14.7081 116.571 14.8634V19.1985H114.724C114.57 19.1985 114.445 19.3253 114.445 19.481V22.7926C114.445 22.9479 114.57 23.075 114.724 23.075H116.571V31.645C116.571 35.1063 118.291 36.8622 121.685 36.8622C123.063 36.8622 124.206 36.5765 125.284 35.9634C125.373 35.9158 125.427 35.8206 125.427 35.7194V32.5646C125.427 32.4694 125.376 32.3771 125.293 32.3265C125.21 32.2729 125.106 32.27 125.02 32.3146C124.28 32.6866 123.565 32.8592 122.763 32.8592C121.53 32.8592 120.978 32.2967 120.978 31.0408V23.0765H125.21C125.364 23.0765 125.489 22.9497 125.489 22.7941V19.4828C125.495 19.3271 125.37 19.2003 125.213 19.2003L125.21 19.1985ZM139.951 19.2155V18.6831C139.951 17.1167 140.551 16.4182 141.893 16.4182C142.695 16.4182 143.339 16.5777 144.061 16.8188C144.15 16.8467 144.242 16.8328 144.313 16.7795C144.387 16.7262 144.429 16.6408 144.429 16.5503V13.3033C144.429 13.1792 144.352 13.0694 144.23 13.0328C143.47 12.8057 142.496 12.5726 141.035 12.5726C137.486 12.5726 135.606 14.5768 135.606 18.3664V19.1819H133.759C133.605 19.1819 133.477 19.3087 133.477 19.464V22.7926C133.477 22.9479 133.605 23.075 133.759 23.075H135.606V36.2908C135.606 36.4485 135.734 36.5735 135.888 36.5735H139.731C139.888 36.5735 140.013 36.4485 140.013 36.2908V23.0759H143.603L149.103 36.2908C148.479 37.6777 147.865 37.9545 147.027 37.9545C146.35 37.9545 145.635 37.7521 144.907 37.3503C144.839 37.3146 144.756 37.3087 144.684 37.3295C144.61 37.3563 144.548 37.4098 144.518 37.4813L143.214 40.3473C143.152 40.4842 143.205 40.642 143.336 40.7134C144.696 41.4515 145.923 41.767 147.44 41.767C150.279 41.767 151.85 40.4396 153.231 36.8741L159.9 19.6012C159.936 19.5143 159.924 19.4161 159.871 19.339C159.82 19.2625 159.734 19.2164 159.642 19.2164H155.639C155.517 19.2164 155.41 19.2929 155.372 19.4057L151.271 31.142L146.781 19.3979C146.739 19.2887 146.635 19.2164 146.52 19.2164H139.951V19.2155ZM131.404 19.1985H127.559C127.404 19.1985 127.277 19.3253 127.277 19.481V36.2908C127.277 36.4485 127.404 36.5735 127.559 36.5735H131.404C131.559 36.5735 131.686 36.4485 131.686 36.2908V19.4822C131.686 19.3265 131.562 19.1997 131.404 19.1997V19.1985ZM129.504 11.5441C127.98 11.5441 126.745 12.7798 126.745 14.3063C126.745 15.8337 127.98 17.0709 129.504 17.0709C131.027 17.0709 132.26 15.8337 132.26 14.3063C132.26 12.7801 131.024 11.5441 129.504 11.5441ZM163.185 24.6036C161.664 24.6036 160.48 23.3789 160.48 21.8917C160.48 20.4045 161.679 19.1658 163.2 19.1658C164.72 19.1658 165.905 20.3902 165.905 21.8762C165.905 23.3634 164.705 24.6036 163.185 24.6036ZM163.2 19.4354C161.813 19.4354 160.765 20.5396 160.765 21.8917C160.765 23.2432 161.807 24.3325 163.185 24.3325C164.572 24.3325 165.62 23.2292 165.62 21.8762C165.62 20.5247 164.578 19.4354 163.2 19.4354ZM163.8 22.1551L164.566 23.2289H163.918L163.229 22.2438H162.638V23.2289H162.098V20.3825H163.363C164.025 20.3825 164.459 20.7209 164.459 21.2905C164.462 21.7572 164.192 22.0423 163.803 22.1551H163.8ZM163.342 20.8709H162.638V21.7712H163.342C163.693 21.7712 163.903 21.5988 163.903 21.3206C163.903 21.0277 163.693 20.8709 163.342 20.8709Z" fill="#1ED760"/>
</g>
<defs>
<clipPath id="clip0_1_5">
<rect width="166" height="50" fill="white"/>
</clipPath>
</defs>
</svg>
